HIERARCHY
ROOT root
{
	OFFSET 0.000000 0.000000 0.000000
	CHANNELS 6 Xposition Yposition Zposition Zrotation Yrotation Xrotation
	JOINT lhip
	{
		OFFSET 0.058581 -0.082280 -0.017664
		CHANNELS 3 Zrotation Yrotation Xrotation
		JOINT lknee
		{
			OFFSET 0.043451 -0.386469 0.008037
			CHANNELS 3 Zrotation Yrotation Xrotation
			JOINT lankle
			{
				OFFSET -0.014790 -0.426874 -0.037428
				CHANNELS 3 Zrotation Yrotation Xrotation
				JOINT ltoe
				{
					OFFSET 0.041054 -0.060286 0.122042
					CHANNELS 3 Zrotation Yrotation Xrotation
					End Site
					{
						OFFSET 0.000000 0.000000 0.000000
					}
				}
			}
		}
	}
	JOINT rhip
	{
		OFFSET -0.060310 -0.090513 -0.013543
		CHANNELS 3 Zrotation Yrotation Xrotation
		JOINT rknee
		{
			OFFSET -0.043257 -0.383688 -0.004843
			CHANNELS 3 Zrotation Yrotation Xrotation
			JOINT rankle
			{
				OFFSET 0.019056 -0.420046 -0.034562
				CHANNELS 3 Zrotation Yrotation Xrotation
				JOINT rtoe
				{
					OFFSET -0.034840 -0.062106 0.130323
					CHANNELS 3 Zrotation Yrotation Xrotation
					End Site
					{
						OFFSET 0.000000 0.000000 0.000000
					}
				}
			}
		}
	}
	JOINT lowerback
	{
		OFFSET 0.004439 0.124404 -0.038385
		CHANNELS 3 Zrotation Yrotation Xrotation
		JOINT upperback
		{
			OFFSET 0.004488 0.137956 0.026820
			CHANNELS 3 Zrotation Yrotation Xrotation
			JOINT chest
			{
				OFFSET -0.002265 0.056032 0.002855
				CHANNELS 3 Zrotation Yrotation Xrotation
				JOINT lowerneck
				{
					OFFSET -0.013390 0.211636 -0.033468
					CHANNELS 3 Zrotation Yrotation Xrotation
					JOINT upperneck
					{
						OFFSET 0.010113 0.088937 0.050410
						CHANNELS 3 Zrotation Yrotation Xrotation
						End Site
						{
							OFFSET 0.000000 0.000000 0.000000
						}
					}
				}
				JOINT lclavicle
				{
					OFFSET 0.071702 0.114000 -0.018898
					CHANNELS 3 Zrotation Yrotation Xrotation
					JOINT lshoulder
					{
						OFFSET 0.122921 0.045205 -0.019046
						CHANNELS 3 Zrotation Yrotation Xrotation
						JOINT lelbow
						{
							OFFSET 0.255332 -0.015649 -0.022946
							CHANNELS 3 Zrotation Yrotation Xrotation
							JOINT lwrist
							{
								OFFSET 0.265709 0.012698 -0.007375
								CHANNELS 3 Zrotation Yrotation Xrotation
								End Site
								{
									OFFSET 0.000000 0.000000 0.000000
								}
							}
						}
					}
				}
				JOINT rclavicle
				{
					OFFSET -0.082954 0.112472 -0.023707
					CHANNELS 3 Zrotation Yrotation Xrotation
					JOINT rshoulder
					{
						OFFSET -0.113228 0.046853 -0.008472
						CHANNELS 3 Zrotation Yrotation Xrotation
						JOINT relbow
						{
							OFFSET -0.260127 -0.014369 -0.031269
							CHANNELS 3 Zrotation Yrotation Xrotation
							JOINT rwrist
							{
								OFFSET -0.269108 0.006794 -0.006027
								CHANNELS 3 Zrotation Yrotation Xrotation
								End Site
								{
									OFFSET 0.000000 0.000000 0.000000
								}
							}
						}
					}
				}
			}
		}
	}
}
MOTION
Frames: 14
Frame Time: 0.033333
-1.994324 0.074823 1.019094 85.260696 1.377152 86.670515 12.106756 1.936607 -4.215833 -7.357548 -9.035879 22.972420 -3.038114 6.037618 -24.531056 0.000000 -0.000000 0.000000 -8.879041 -1.793716 -8.622218 4.620203 4.968958 25.432806 7.302246 4.415429 -24.221170 0.000000 -0.000000 0.000000 -0.432297 1.645425 9.732362 0.520081 0.442290 -0.492032 -1.748573 1.452063 -1.872569 4.879903 3.692911 -7.125532 -1.846961 -9.629986 10.575307 -24.472855 0.172118 -1.407466 -53.166441 -7.138489 14.602718 -0.343179 -29.145194 28.276063 5.752432 -8.281677 17.588533 26.040477 4.747218 1.557443 52.210940 7.674181 13.031196 -5.642394 28.561196 7.666438 -1.653875 5.426341 -6.382014 
-1.995123 0.074465 1.018554 84.916519 1.369739 86.831699 12.197285 2.464149 -4.395719 -7.368880 -7.813185 22.839893 -2.855295 6.377488 -24.531200 0.000000 -0.000000 0.000000 -9.000642 -1.946930 -9.048379 4.893716 4.990509 25.640957 7.309551 4.569659 -23.971487 0.000000 -0.000000 0.000000 -0.351872 1.493390 9.668288 0.484898 0.557621 -0.520561 -1.788059 1.507724 -1.781766 4.852742 3.774846 -7.191568 -1.934212 -9.345645 10.756771 -24.399401 0.183507 -1.463056 -53.344642 -7.279480 14.491587 -0.132544 -29.310495 27.950434 5.614917 -8.044734 17.451136 25.885837 4.754243 1.496729 52.395737 7.990543 13.019579 -5.651239 28.012216 7.461532 -1.216358 5.218075 -6.278787 
-1.995860 0.074057 1.018053 84.709853 1.372741 86.887081 12.294993 3.345306 -4.419542 -7.277386 -6.468185 22.537828 -2.552347 6.576045 -24.530886 0.000000 -0.000000 0.000000 -9.079487 -2.172407 -9.316056 5.031587 4.837294 25.782444 7.065733 4.802841 -23.464971 0.000000 -0.000000 0.000000 -0.347550 1.379044 9.726001 0.503767 0.578541 -0.538887 -1.756555 1.527527 -1.748998 4.817459 3.663941 -7.162937 -1.945362 -9.226180 10.884295 -24.394036 0.084562 -1.467320 -53.481015 -7.391303 14.396051 -0.025981 -29.326399 27.686317 5.675372 -7.939399 17.281543 25.884458 4.808905 1.584099 52.364409 8.281480 12.849117 -5.734965 27.556445 7.094988 -1.178832 5.140538 -6.078536 
-1.996894 0.073558 1.017371 84.610887 1.360253 86.803151 12.401931 4.192324 -4.346337 -7.198387 -5.466300 22.339222 -2.354063 6.585341 -24.568461 0.000000 -0.000000 0.000000 -9.014681 -2.496565 -9.582595 4.978205 4.719830 26.234621 6.699035 4.840636 -22.710613 0.000000 -0.000000 0.000000 -0.420500 1.241259 10.042723 0.528547 0.541902 -0.643975 -1.695526 1.511156 -1.693325 4.793404 3.613230 -7.126330 -1.876886 -9.006013 10.916747 -24.405434 -0.142162 -1.456407 -53.469708 -7.546668 14.324665 -0.105376 -29.289655 27.818381 5.624885 -7.925352 17.263612 25.899237 4.951624 1.644725 52.319752 8.490940 12.698437 -5.845381 27.027477 6.831039 -0.867331 4.998956 -6.028185 
-1.997387 0.073165 1.016914 84.618712 1.360683 86.723200 12.531547 4.463501 -4.338378 -7.301631 -5.199952 22.413092 -2.357680 6.478439 -24.643552 0.000000 -0.000000 0.000000 -8.997620 -2.612962 -9.631553 4.987078 4.667511 26.447428 6.500728 4.958844 -22.718800 0.000000 -0.000000 0.000000 -0.421727 1.169117 10.169049 0.530383 0.490087 -0.651683 -1.695514 1.477580 -1.668134 4.782671 3.600656 -7.025187 -1.804048 -8.972709 10.891393 -24.349357 -0.329656 -1.416574 -53.500690 -7.577136 14.309264 -0.075065 -29.341767 27.924443 5.319457 -7.756847 17.236305 25.779156 5.004400 1.650029 52.458521 8.544554 12.553131 -5.868285 26.724370 6.814563 -0.234745 4.672082 -6.219130 
-1.997868 0.072972 1.016260 84.655745 1.348862 86.487646 12.715120 4.751786 -4.216210 -7.514013 -4.821149 22.613781 -2.288781 6.338764 -24.782581 0.000000 -0.000000 0.000000 -9.134596 -2.819183 -9.532138 5.145149 4.462291 26.763281 6.319918 5.150314 -22.892508 0.000000 -0.000000 0.000000 -0.418613 1.083922 10.487514 0.533658 0.424464 -0.622828 -1.707541 1.429924 -1.634213 4.771733 3.581762 -7.054091 -1.784784 -8.960565 10.850099 -24.434317 -0.468796 -1.402795 -53.394201 -7.651836 14.226911 -0.111162 -29.483363 27.908299 5.206679 -7.758290 17.204575 25.812853 5.100433 1.568978 52.432380 8.511974 12.392841 -5.919424 26.430169 6.536474 -0.159165 4.568734 -6.202479 
-1.998396 0.072785 1.015490 84.550286 1.323384 86.191678 12.843021 4.998887 -4.066852 -7.659986 -4.547490 22.934215 -2.150093 6.220271 -24.832780 0.000000 -0.000000 0.000000 -9.252436 -3.048598 -9.518388 5.329550 4.423505 27.240013 6.231622 5.244615 -23.068050 0.000000 -0.000000 0.000000 -0.463341 1.047811 11.003008 0.545229 0.413420 -0.792087 -1.670935 1.407453 -1.594953 4.710750 3.538724 -7.097001 -1.795415 -8.854340 10.884140 -24.479881 -0.564471 -1.416218 -53.378187 -7.648618 14.155780 -0.152626 -29.585610 27.834599 5.448287 -7.793445 17.050941 25.800954 5.204628 1.496995 52.340352 8.426797 12.291575 -5.800871 26.275473 6.373684 -0.350487 4.570917 -6.066954 
-1.999084 0.073000 1.014651 84.475728 1.258532 85.779429 12.911401 5.221059 -3.834228 -7.789464 -4.384818 23.322854 -2.034172 6.132066 -24.904671 0.000000 -0.000000 0.000000 -9.289178 -3.056525 -9.483812 5.335055 4.365883 27.903045 6.121887 5.143007 -23.399960 0.000000 -0.000000 0.000000 -0.600062 1.027159 11.862333 0.576173 0.453708 -1.223927 -1.594932 1.414712 -1.476794 4.671806 3.526341 -7.242425 -1.810699 -8.826620 11.003239 -24.596166 -0.628384 -1.508773 -53.271720 -7.632281 14.075109 -0.320341 -29.643908 27.831284 5.718932 -7.961644 17.018002 25.909393 5.247925 1.387258 52.111128 8.267761 12.198467 -5.783734 26.251737 6.166426 -0.734385 4.675120 -5.710210 
-1.999655 0.073573 1.013598 84.552255 1.253476 85.454733 13.033515 5.463631 -3.666842 -7.891924 -4.300064 23.661352 -1.884235 5.890807 -24.947449 0.000000 -0.000000 0.000000 -9.333369 -3.114925 -9.422040 5.353777 4.209683 28.477101 6.003550 5.031616 -23.694699 0.000000 -0.000000 0.000000 -0.604787 0.918820 12.624649 0.568370 0.445909 -1.600910 -1.560596 1.345943 -1.436740 4.641284 3.492023 -7.271559 -1.782414 -8.672663 11.023926 -24.714774 -0.688579 -1.499973 -53.120291 -7.557777 13.958055 -0.433338 -29.699465 27.835335 5.779470 -8.025896 16.953896 25.910452 5.287825 1.179462 52.054657 8.065305 12.134597 -5.697158 26.089442 5.997009 -0.788847 4.688281 -5.582103 
-2.000052 0.074370 1.012058 84.817317 1.201908 85.255150 13.117086 5.676756 -3.831576 -8.121787 -4.266317 24.247018 -1.544270 5.555700 -24.764352 0.000000 -0.000000 0.000000 -9.504070 -3.349415 -9.579165 5.462770 3.956726 29.275364 5.836422 4.946299 -24.087508 0.000000 -0.000000 0.000000 -0.701826 0.782947 13.148678 0.631367 0.341858 -1.814296 -1.539416 1.261045 -1.447169 4.628716 3.482768 -7.246977 -1.766461 -8.569151 11.051138 -24.888643 -0.828036 -1.411225 -52.865731 -7.542887 13.899342 -0.537927 -29.581169 27.798380 5.637089 -7.971592 16.932421 25.999176 5.368676 1.100667 51.933169 7.915089 12.015394 -5.717358 25.825098 5.498942 -0.507449 4.677050 -5.777364 
-2.000349 0.074846 1.010949 84.933970 1.085365 85.107194 13.166456 5.777811 -3.945088 -8.375116 -4.071482 24.678097 -1.325485 5.290838 -24.498494 0.000000 -0.000000 0.000000 -9.660433 -3.493006 -9.756314 5.494399 3.861420 29.938943 5.519379 4.874895 -24.473445 0.000000 -0.000000 0.000000 -0.884263 0.791456 13.563642 0.649469 0.299611 -1.972234 -1.525999 1.195033 -1.466822 4.664226 3.495039 -7.217577 -1.722632 -8.583328 11.011361 -24.956916 -0.944864 -1.401994 -52.651553 -7.570766 13.861431 -0.626945 -29.272325 27.818488 5.590564 -7.958771 16.942048 26.056279 5.361006 1.006901 51.952522 7.869836 11.963259 -5.676976 25.565256 5.379976 -0.405987 4.607279 -5.648383 
-2.000438 0.075312 1.009893 84.944412 0.955370 85.014865 13.209576 5.893637 -4.007046 -8.645122 -3.909926 25.003617 -1.177511 5.138387 -24.417185 0.000000 -0.000000 0.000000 -9.846499 -3.569400 -9.984722 5.543625 3.725235 30.560302 5.236811 4.930776 -24.833811 0.000000 -0.000000 0.000000 -1.037737 0.835857 13.829617 0.615535 0.318491 -2.064514 -1.548023 1.185697 -1.461948 4.679221 3.474386 -7.205104 -1.644477 -8.716733 10.998013 -24.961755 -1.093954 -1.396994 -52.477431 -7.565894 13.832412 -0.590253 -29.021802 27.680067 5.492035 -7.871776 16.982335 26.128686 5.477866 0.980502 51.994493 7.779500 11.930242 -5.716571 25.343341 5.267750 -0.209045 4.560407 -5.540963 
-2.000392 0.075891 1.008894 84.988088 0.895904 85.044282 13.244331 5.962061 -4.219578 -8.848680 -3.815149 25.378182 -0.967364 5.028195 -24.420547 0.000000 -0.000000 0.000000 -9.990580 -3.650219 -10.253491 5.639562 3.578346 31.093773 5.168826 4.969036 -25.102152 0.000000 -0.000000 0.000000 -1.082455 0.849099 13.983363 0.584193 0.356505 -2.215893 -1.597683 1.196237 -1.459029 4.678991 3.389670 -7.217552 -1.625716 -8.827169 11.046115 -25.035805 -1.118692 -1.401441 -52.255943 -7.613062 13.766692 -0.596094 -28.810561 27.527537 5.338234 -7.828932 17.021304 26.217621 5.547238 0.997059 51.978649 7.661044 11.938277 -5.721000 25.230213 5.167127 0.029212 4.540664 -5.550945 
-2.000237 0.076323 1.007948 85.039487 0.884201 85.134429 13.266903 5.990296 -4.506482 -8.949412 -3.667765 25.787564 -0.801225 4.957386 -24.572292 0.000000 -0.000000 0.000000 -9.987915 -3.675883 -10.577039 5.674158 3.575228 31.592798 4.939982 4.783577 -25.426849 0.000000 -0.000000 0.000000 -1.068726 0.853899 13.929962 0.579503 0.387852 -2.208095 -1.632098 1.171296 -1.471871 4.668752 3.360504 -7.157769 -1.679188 -8.813348 10.991216 -25.095671 -1.161441 -1.343728 -52.081205 -7.641950 13.689855 -0.552469 -28.742226 27.413985 5.230465 -7.742537 16.965846 26.242066 5.571150 1.007480 51.955613 7.640995 11.946854 -5.663705 25.210286 5.179028 0.195752 4.489665 -5.606714 
